<?xml version="1.0" encoding="UTF-8" standalone="no"?>
<svg width="8.4810009mm" height="3.4110966mm" viewBox="0 0 9.209246 3.704" version="1.1" id="svg1" sodipodi:docname="logo-new.svg" inkscape:version="1.3.2 (091e20e, 2023-11-25)" inkscape:export-filename="logo-new-exported.svg" inkscape:export-xdpi="1654.8184" inkscape:export-ydpi="1654.8184"
   xmlns:inkscape="http://www.inkscape.org/namespaces/inkscape"
   xmlns:sodipodi="http://sodipodi.sourceforge.net/DTD/sodipodi-0.dtd"
   xmlns="http://www.w3.org/2000/svg"
   xmlns:svg="http://www.w3.org/2000/svg">
   <sodipodi:namedview id="namedview1" pagecolor="#ffffff" bordercolor="#000000" borderopacity="0.25" inkscape:showpageshadow="2" inkscape:pageopacity="0.0" inkscape:pagecheckerboard="0" inkscape:deskcolor="#d1d1d1" inkscape:document-units="px" inkscape:zoom="8" inkscape:cx="20.125" inkscape:cy="2.875" inkscape:window-width="1536" inkscape:window-height="907" inkscape:window-x="0" inkscape:window-y="25" inkscape:window-maximized="0" inkscape:current-layer="layer1" inkscape:clip-to-page="true" showguides="true" shape-rendering="auto">
      <sodipodi:guide position="1.5936692,2.5217177" orientation="0,-1" id="guide1" inkscape:locked="false" />
   </sodipodi:namedview>
   <defs id="defs1" />
   <g inkscape:label="Layer 1" inkscape:groupmode="layer" id="layer1" transform="translate(-102.92291,-122.2375)">
      <path style="font-weight:bold;font-size:3.52777px;line-height:0;font-family:Tektur;-inkscape-font-specification:'Tektur Bold';letter-spacing:0px;word-spacing:0px;fill:#00ffff;stroke-width:0.264583" d="m 105.24438,124.70694 v -2.46944 h 0.71261 l 0.49389,1.05128 0.49389,-1.05128 h 0.71261 v 2.46944 h -0.58208 v -1.7145 l -0.49742,1.02306 h -0.254 l -0.49741,-1.02306 v 1.7145 z" id="text7-1-3-9-5-3" aria-label="M" />
      <path style="font-weight:bold;font-size:3.52777px;line-height:0;font-family:Tektur;-inkscape-font-specification:'Tektur Bold';letter-spacing:0px;word-spacing:0px;fill:#00ffff;stroke-width:0.264583" d="m 109.89507,124.19188 v 0.51506 h -1.90499 v -1.38234 l 1.31129,-0.17588 10e-4,-0.39617 -1.31165,-0.001 -4e-5,-0.51405 1.47394,3e-5 0.43039,0.43039 v 0.9525 l -1.31233,0.17639 v 0.39511 z" id="text7-6-6-4-1-5" aria-label="2" sodipodi:nodetypes="cccccccccccccc" />
      <path style="font-weight:bold;font-size:3.52777px;line-height:0;font-family:Tektur;-inkscape-font-specification:'Tektur Bold';letter-spacing:0px;word-spacing:0px;fill:#00ffff;stroke-width:0.264583" d="m 112.13238,123.98721 v -0.51506 h -1.905 l -6e-5,1.38292 1.31213,0.17741 2.6e-4,0.39406 h -1.31233 v 0.51505 h 1.47461 l 0.43039,-0.43039 v -0.95249 l -1.31233,-0.17639 v -0.39511 z" id="text7-6-6-4-4-1-8" aria-label="2" sodipodi:nodetypes="cccccccccccccc" inkscape:export-filename="text7-6-6-4-4-1-8.svg" inkscape:export-xdpi="1654.8184" inkscape:export-ydpi="1654.8184" />
      <path style="font-weight:bold;font-size:3.52777px;line-height:0;font-family:Tektur;-inkscape-font-specification:'Tektur Bold';letter-spacing:0px;word-spacing:0px;fill:#00ffff;stroke-width:0.264583" d="m 102.92291,124.70694 v -2.46944 h 0.59267 v 0.95955 h 0.35277 l 0.52217,-0.95955 h 0.66089 l -0.66089,1.23459 0.66316,1.23485 h -0.66322 l -0.49388,-0.99483 h -0.381 v 0.99483 z" id="text7-5-4-7" aria-label="K" sodipodi:nodetypes="cccccccccccccc" />
   </g>
</svg>
