<svg xmlns="http://www.w3.org/2000/svg" viewBox="0 0 3.68 3.37">
    <g fill="#fff">
        <path d="M.351.368V.001h2.97v.367zM.318 3.369v-.367H3.34v.367z"/>
        <path d="M0 0h.367v3.369H0zm3.312.001h.367v3.368h-.367z"/>
        <path d="M.327 3.059h3.14V.329H.327z"/>
    </g>
    <path d="M1.722 1.758v.366H.368v-.982l.932-.125.001-.282L.368.734V.369h1.048l.306.306v.677l-.933.125v.281zm1.59-.146v-.366H1.958v.983l.933.126v.28h-.933v.366h1.048l.306-.306v-.677l-.933-.125v-.281z" fill="#45fffd"/>
</svg>