<svg width="241" height="71" xmlns="http://www.w3.org/2000/svg"><g fill="#EA1D09" fill-rule="evenodd"><path d="M133.62 54.896c3.777-3.935 7.036-21.764 7.036-24.983 0-2.29-.164-3.083-4.475-3.083-1.704 0-4.238.265-5.385 1.853-4.299 5.953-7.149 20.838-7.149 24.977 0 2.827 1.965 2.647 4.59 2.647 1.527 0 3.991.039 5.383-1.411Zm8.296-41.481c10.126 0 22.682 1.589 22.682 12.62 0 6.796-6.709 21.715-8.865 25.86-9.012 17.328-21.052 17.21-34.646 17.21-6.642 0-21.446.077-21.446-12.356 0-5.561 4.846-15.753 8.826-25.417 1.693-4.11 8.902-17.917 33.45-17.917ZM30.184 31.772c1.43-1.431 15.705-13.856 23.829-13.856 2.497 0 2.648 4.574 2.648 7.767 0 5.97-.587 7.06-7.06 7.06H31.33c-1.414 0-2.206.089-1.147-.971M25.77 45.805s15.098.442 22.594.442h7.502c10.676 0 20.298-3.244 20.298-18.888 0-7.322-1.715-27.36-14.296-27.36C47.898 0-.001 18.694-.001 43.512c0 14.81 20.37 27.094 42.982 27.094 15.019 0 32.92-8.7 32.92-14.21 0-2.824-7.31-3.617-12.268-3.617-5.107 0-13.062.917-13.062.917-.97 1.024-5.432 5.349-12.356 5.349-8.791 0-14.562-7.696-14.562-12.797 0-.707.906-.466 2.118-.442M91.875 31.86c-3.867 0-7.784.546-9.973 5.562-.236.542-2.03 4.222-2.03 6.354 0 2.755 1.67 4.5 6.531 4.5 3.241 0 7.843-.701 9.598-5.031.277-.681 2.229-5.295 2.229-6.971 0-3.05-3.077-4.413-6.355-4.413M222.191 36.81c0 4.055-6.64 22.83-8.39 28.042-.298.888.142 1.493.496 1.775 1.711 1.37 5.22 2.478 9.874 2.478 2.572 0 4.556-.386 5.592-3.112 1.576-4.149 11.182-31.794 11.182-39.868 0-4.81-2.275-11.034-12.36-11.034-11.474 0-24.449 12.267-31.596 12.267-4.236 0-4.38-4.5-4.38-5.823 0-3.065-.016-3.037-.016-3.037-1.826-.98-5.468-1.113-7.342-1.113-2.556 0-4.39.427-4.95.515-1.205.188-1.436.631-1.67 1.162-5.547 12.59-13.547 35.82-15.092 42.1l-.844 3.431c-.298 1.211-.249 1.785.755 2.305.322.167 3.707 1.853 6.885 1.853 2.568 0 4.766-.353 6.266-2.029 4.585-5.126 29.277-33.803 42.716-33.803 2.217 0 2.874 1.67 2.874 3.89"/></g></svg>