<?xml version="1.0" encoding="utf-8"?>
<svg version="1.2" baseProfile="tiny" id="Logga_SV_x2C__PMS_485_x2C__PMS_CoolGrey_9U"
	xmlns="http://www.w3.org/2000/svg"
	xmlns:xlink="http://www.w3.org/1999/xlink" x="0px" y="0px" viewBox="0 0 707 156" xml:space="preserve">
	<path d="M56.7,150.7c-17.6,0-30.5-3.2-38.7-12c-8.3-8.8-12.4-22.6-12.4-41.3c0-17.6,4.2-30.7,12.6-39.4c8.4-8.6,21.3-12.9,38.5-12.9
	c17.4,0,30.2,4.4,38.6,13c8.3,8.7,12.5,22.1,12.5,40.3c0,15.6-5.1,37-19.2,40.9c0,0,3.9-0.7,10.1-4.5c6,0,17,0,17,0s0,6.5,0,15.9
	c-5.4,0-59.1,0-59.1,0 M56.7,62.7c-9.2,0-16.1,2.9-20.7,8.6c-4.6,5.8-6.9,14.5-6.9,26.2c0,12.6,2.2,20.9,6.6,26.8
	c4.4,5.9,11.4,8.8,20.9,8.8c9.4,0,16.3-2.9,20.8-8.8c4.5-5.8,6.8-13.8,6.8-26c0-12.2-2.3-21.2-6.8-27C73,65.6,66,62.7,56.7,62.7z"/>
	<path d="M148.2,62.9v52.5c0,8.2,1.5,13.9,4.5,17.2c3,3.2,8.1,4.9,15.3,4.9c7.2,0,12.3-1.6,15.3-4.8c2.9-3.2,4.4-9,4.4-17.2V62.9
	h18.4v53c0,6.2-0.4,11.2-1.2,14.9c-0.8,3.7-2.1,6.6-3.9,8.8c-3.5,4.1-7.9,7.2-13.2,9.1c-5.3,1.9-11.9,2.9-19.8,2.9
	c-7.9,0-14.5-1-19.9-2.9c-5.4-1.9-9.8-5-13.3-9.1c-1.8-2.1-3-5-3.8-8.5c-0.8-3.6-1.2-8.6-1.2-15.1v-53H148.2z"/>
	<path d="M252.4,62.9h19.6l37.4,87.7h-20.5l-8.1-20.9h-38.1l-7.8,20.9h-19.6L252.4,62.9z M261.4,80.4l-12.8,33.8h26.1L261.4,80.4z"/>
	<path d="M356.7,150.7c-8.2,0-16.3,0.3-20.3-1.1c-4-1.4-6.5-2.8-9.7-6.1c-2.9-3-4-5.4-5.1-9.3c-1.2-3.8-1.8-12.2-1.8-19.1V62.9h18.4
	v51.6c0,5.1-0.1,10.6,0.4,12.7c0.5,2.1,0.9,3.3,2,4.5c1.8,2.1,2.3,2.2,4.9,3.1s8.3,1.3,12.8,1.3H380v14.6H356.7z"/>
	<path d="M414.6,150.7h-19.3V62.9h19.3V150.7z"/>
	<path d="M514.5,78.6h-45.6c-4.9,0-8.5,0.9-10.8,2.8c-2.3,1.8-3.4,4.7-3.4,8.7c0,3.2,1,5.6,2.9,7.2c1.9,1.6,4.9,2.4,8.7,2.4h24.4
	c10.1,0,17.3,1.9,21.6,5.7c4.3,3.8,6.4,10.2,6.4,19.1c0,9-2.5,15.7-7.4,19.9c-4.9,4.2-12.7,6.4-23.3,6.4h-49.2v-15.6h46.2
	c5.2,0,8.9-0.8,11.1-2.3c2.1-1.5,3.2-4.1,3.2-7.6c0-3.7-1-6.3-3-7.8c-2-1.6-5.3-2.3-10.1-2.3h-21.8c-10.1,0-17.5-2-22.2-6.1
	c-4.7-4-7-10.4-7-19.1c0-9.3,2.5-16.1,7.4-20.4c4.9-4.3,12.7-6.4,23.5-6.4h48.3V78.6z"/>
	<path d="M527.8,62.9h20.8l21.7,42.5l22-42.5h21.4l-33.9,60v27.7h-18.4v-27.7L527.8,62.9z"/>
	<path d="M697.3,78.6h-45.6c-4.9,0-8.5,0.9-10.8,2.8c-2.3,1.8-3.4,4.7-3.4,8.7c0,3.2,1,5.6,2.9,7.2c1.9,1.6,4.9,2.4,8.7,2.4h24.4
	c10.1,0,17.3,1.9,21.6,5.7c4.3,3.8,6.4,10.2,6.4,19.1c0,9-2.5,15.7-7.4,19.9c-4.9,4.2-12.7,6.4-23.3,6.4h-49.2v-15.6h46.2
	c5.2,0,8.9-0.8,11.1-2.3c2.1-1.5,3.2-4.1,3.2-7.6c0-3.7-1-6.3-3-7.8c-2-1.6-5.3-2.3-10.1-2.3h-21.8c-10.1,0-17.5-2-22.2-6.1
	c-4.7-4-7-10.4-7-19.1c0-9.3,2.5-16.1,7.4-20.4c4.9-4.3,12.7-6.4,23.4-6.4h48.3V78.6z"/>
	<path fill="#EE3124" d="M405,6.3c-10.6,0-19.3,8.6-19.3,19.3c0,10.6,8.6,19.3,19.3,19.3s19.3-8.6,19.3-19.3
	C424.2,14.9,415.6,6.3,405,6.3z M405,34.5c-5,0-9-4-9-9c0-5,4-9,9-9c5,0,9,4,9,9C414,30.5,409.9,34.5,405,34.5z"/>
	<path fill="#999999" d="M678,6.3c-10.6,0-19.3,8.6-19.3,19.3c0,10.6,8.6,19.3,19.3,19.3c10.6,0,19.3-8.6,19.3-19.3
	C697.3,14.9,688.7,6.3,678,6.3z M678,34.5c-4.9,0-9-4-9-9c0-5,4-9,9-9c5,0,9,4,9,9C687,30.5,683,34.5,678,34.5z"/>
	<path fill="#999999" d="M496,6.3c-10.6,0-19.3,8.6-19.3,19.3c0,10.6,8.6,19.3,19.3,19.3c10.6,0,19.3-8.6,19.3-19.3
	C515.3,14.9,506.6,6.3,496,6.3z M496,34.5c-5,0-9-4-9-9c0-5,4-9,9-9c5,0,9,4,9,9C505,30.5,501,34.5,496,34.5z"/>
	<path fill="#999999" d="M587,6.3c-10.6,0-19.3,8.6-19.3,19.3c0,10.6,8.6,19.3,19.3,19.3c10.6,0,19.3-8.6,19.3-19.3
	C606.3,14.9,597.6,6.3,587,6.3z M586.9,34.5c-5,0-9-4-9-9c0-5,4-9,9-9c5,0,9,4,9,9C595.9,30.5,591.9,34.5,586.9,34.5z"/>
</svg>
