<svg xmlns="http://www.w3.org/2000/svg" viewBox="0 0 27.505 6.633"><use height="100%" width="100%" href="#a" x="586.321" y="480.328" transform="translate(-137.413 -6.258) scale(.28083)" fill="#fff"/><use height="100%" width="100%" href="#a" x="586.292" y="480.328" transform="translate(-137.413 -6.258) scale(.28083)" fill="#fff"/><g fill="#0068b0" stroke-width=".281"><path d="M7.904 6.5a.24.24 0 0 0 .24-.239V2.758a.238.238 0 0 0-.24-.238H3.498a.16.16 0 0 1-.16-.16V1.087a.16.16 0 0 1 .16-.16H4.78a.16.16 0 0 1 .16.16v.398c0 .132.107.239.24.239h1.923a.24.24 0 0 0 .24-.24V.37a.24.24 0 0 0-.24-.238h-5.93a.239.239 0 0 0-.24.238v2.707c0 .132.108.239.24.239h4.408a.16.16 0 0 1 .16.159v2.07a.16.16 0 0 1-.16.159H2.696a.16.16 0 0 1-.16-.16V4.35a.24.24 0 0 0-.24-.238H.374a.24.24 0 0 0-.242.238v1.911c0 .132.109.24.242.24M12.15 4.213a.04.04 0 0 1 .04-.04c.011 0 .021.004.028.012.008.006 2.242 2.228 2.26 2.247.014.012.073.068.169.068h2.87a.24.24 0 0 0 .242-.239v-1.91a.24.24 0 0 0-.242-.238h-2.07a.241.241 0 0 1-.166-.066c-.03-.03-1.501-1.491-1.508-1.5a.038.038 0 0 1-.012-.027c0-.012.004-.02.012-.028l.701-.7a.243.243 0 0 1 .17-.068h2.073a.24.24 0 0 0 .24-.24V.37a.239.239 0 0 0-.24-.238h-2.07a.242.242 0 0 0-.168.067l-2.261 2.248a.036.036 0 0 1-.028.012.041.041 0 0 1-.04-.04V.37a.239.239 0 0 0-.24-.238H9.587a.239.239 0 0 0-.24.238v1.911c0 .132.107.24.24.24.09 0 .16.07.16.157v1.275a.16.16 0 0 1-.16.16.239.239 0 0 0-.24.237v1.911c0 .132.107.24.24.24h2.323a.24.24 0 0 0 .24-.24M21.522 6.5a.24.24 0 0 0 .24-.239v-1.91a.239.239 0 0 0-.24-.239.16.16 0 0 1-.16-.159v-.478a.16.16 0 0 1 .16-.16h.881a.16.16 0 0 1 .16.16c0 .133.108.239.24.239h1.926a.24.24 0 0 0 .24-.24V2.36a.239.239 0 0 0-.24-.238h-1.925a.24.24 0 0 0-.242.238c0 .09-.07.16-.159.16h-.88a.16.16 0 0 1-.16-.16V1.087a.16.16 0 0 1 .16-.16h2.484a.16.16 0 0 1 .16.16v.398c0 .132.109.239.24.239h2.725a.24.24 0 0 0 .24-.24V.37a.239.239 0 0 0-.24-.238H19.2a.239.239 0 0 0-.24.238v1.911c0 .132.107.24.24.24.089 0 .16.07.16.157v1.275a.16.16 0 0 1-.16.16.239.239 0 0 0-.24.237v1.911c0 .132.107.24.24.24"/></g></svg>